<?xml version="1.0" standalone="no"?>
<!DOCTYPE svg PUBLIC "-//W3C//DTD SVG 20010904//EN"
 "http://www.w3.org/TR/2001/REC-SVG-20010904/DTD/svg10.dtd">
<svg version="1.0" xmlns="http://www.w3.org/2000/svg"
 width="512.000000pt" height="512.000000pt" viewBox="0 0 512.000000 512.000000"
 preserveAspectRatio="xMidYMid meet">
<metadata>
Created by potrace 1.11, written by Peter Selinger 2001-2013
</metadata>
<g transform="translate(0.000000,512.000000) scale(0.100000,-0.100000)"
fill="#000000" stroke="none">
<path d="M0 2560 l0 -2560 2560 0 2560 0 0 2560 0 2560 -2560 0 -2560 0 0
-2560z m4240 110 l0 -710 -130 0 -130 0 0 710 0 710 130 0 130 0 0 -710z
m-3160 555 l0 -135 -135 0 -135 0 0 135 0 135 135 0 135 0 0 -135z m1500 -105
l0 -190 95 0 95 0 0 -110 0 -110 -96 0 -96 0 4 -217 c3 -132 9 -229 16 -246
14 -34 65 -57 127 -57 l45 0 0 -121 0 -122 -102 5 c-229 11 -316 95 -338 327
-11 109 -14 1014 -3 1024 3 4 62 7 130 7 l123 0 0 -190z m-628 -199 c73 -28
150 -97 183 -164 47 -97 55 -165 55 -494 l0 -303 -129 0 -129 0 -4 298 -3 298
-30 59 c-25 48 -39 63 -79 84 -98 50 -227 23 -287 -60 -44 -62 -49 -105 -49
-401 l0 -278 -130 0 -130 0 0 485 0 485 125 0 125 0 0 -66 0 -67 48 46 c52 48
93 72 157 94 59 19 206 11 277 -16z m1521 14 c164 -43 292 -163 347 -324 14
-43 21 -92 23 -159 l2 -97 -377 -3 c-251 -1 -378 -6 -378 -13 0 -22 41 -88 71
-113 52 -44 97 -58 184 -60 68 0 89 4 140 27 33 16 72 40 86 53 l27 26 91 -68
c50 -38 91 -72 91 -75 0 -4 -23 -28 -52 -54 -61 -54 -144 -99 -225 -120 -72
-19 -222 -19 -292 0 -227 60 -371 248 -371 484 0 151 51 272 154 369 106 99
208 140 346 141 42 1 102 -6 133 -14z m-2403 -490 l0 -485 -130 0 -130 0 0
485 0 485 130 0 130 0 0 -485z m3429 -331 c65 -54 25 -164 -60 -164 -70 0
-115 66 -89 131 25 59 99 76 149 33z"/>
<path d="M3252 2716 c-79 -26 -134 -77 -161 -148 l-11 -28 261 0 260 0 -6 23
c-13 45 -61 101 -112 129 -63 35 -164 46 -231 24z"/>
<path d="M4385 2095 c-30 -30 -32 -64 -4 -99 43 -54 129 -23 129 47 0 69 -77
101 -125 52z m93 -24 c2 -13 -2 -27 -9 -32 -10 -6 -10 -11 1 -23 7 -9 9 -20 5
-24 -4 -4 -14 3 -22 16 -19 27 -33 28 -33 2 0 -11 -4 -20 -10 -20 -5 0 -10 25
-10 56 l0 55 38 -3 c30 -2 38 -7 40 -27z"/>
<path d="M4420 2064 c0 -9 7 -14 17 -12 25 5 28 28 4 28 -12 0 -21 -6 -21 -16z"/>
</g>
</svg>
